<?xml version="1.0" encoding="utf-8"?>
<!-- Generator: Adobe Illustrator 20.0.0, SVG Export Plug-In . SVG Version: 6.00 Build 0)  -->
<svg version="1.1" xmlns="http://www.w3.org/2000/svg" xmlns:xlink="http://www.w3.org/1999/xlink" x="0px" y="0px"
	 viewBox="0 0 705 705" style="enable-background:new 0 0 705 705;" xml:space="preserve">
<style type="text/css">
	.st0{fill:#565656;}
	.st1{fill:#007BFF;}
</style>
<g id="Layer_1">
	<g>
		<path class="st0" d="M139.2,395.2c-23.5,0-42.7-19.1-42.7-42.7s19.1-42.7,42.7-42.7s42.7,19.1,42.7,42.7S162.7,395.2,139.2,395.2z
			 M139.2,326.9c-14.1,0-25.6,11.5-25.6,25.6s11.5,25.6,25.6,25.6s25.6-11.5,25.6-25.6S153.3,326.9,139.2,326.9z"/>
		<path class="st0" d="M565.8,395.2c-23.5,0-42.7-19.1-42.7-42.7s19.1-42.7,42.7-42.7c23.5,0,42.7,19.1,42.7,42.7
			S589.4,395.2,565.8,395.2z M565.8,326.9c-14.1,0-25.6,11.5-25.6,25.6s11.5,25.6,25.6,25.6c14.1,0,25.6-11.5,25.6-25.6
			S579.9,326.9,565.8,326.9z"/>
		<path class="st0" d="M352.5,608.5c-23.5,0-42.7-19.1-42.7-42.7c0-23.5,19.1-42.7,42.7-42.7c23.5,0,42.7,19.1,42.7,42.7
			C395.2,589.4,376,608.5,352.5,608.5L352.5,608.5z M352.5,540.2c-14.1,0-25.6,11.5-25.6,25.6c0,14.1,11.5,25.6,25.6,25.6
			c14.1,0,25.6-11.5,25.6-25.6C378.1,551.7,366.6,540.2,352.5,540.2L352.5,540.2z"/>
		<path class="st0" d="M352.5,181.8c-23.5,0-42.7-19.1-42.7-42.7s19.1-42.7,42.7-42.7c23.5,0,42.7,19.1,42.7,42.7
			S376,181.8,352.5,181.8L352.5,181.8z M352.5,113.6c-14.1,0-25.6,11.5-25.6,25.6s11.5,25.6,25.6,25.6c14.1,0,25.6-11.5,25.6-25.6
			S366.6,113.6,352.5,113.6L352.5,113.6z"/>
		<path class="st0" d="M563.1,327.2c-4.1,0-7.7-3-8.4-7.2c-2.6-16.2-7.1-32.1-13.5-47.2c-1.8-4.3,0.2-9.4,4.5-11.2
			c4.4-1.8,9.4,0.2,11.2,4.5c6.9,16.3,11.8,33.5,14.6,51.1c0.7,4.7-2.4,9-7.1,9.8C564,327.1,563.6,327.2,563.1,327.2L563.1,327.2z"
			/>
		<path class="st0" d="M521.4,230.8c-2.6,0-5.1-1.1-6.8-3.3c-10.7-13.9-23.2-26.4-37.2-37.2c-3.7-2.9-4.4-8.2-1.5-12
			c2.9-3.7,8.2-4.4,12-1.5c15.1,11.6,28.6,25.2,40.2,40.2c2.9,3.7,2.2,9.1-1.5,12C525.1,230.2,523.2,230.8,521.4,230.8z"/>
		<path class="st0" d="M435.5,164.5c-1.1,0-2.2-0.2-3.3-0.7c-15.1-6.4-30.9-10.9-47.2-13.5c-4.7-0.7-7.8-5.1-7.1-9.8
			c0.7-4.7,5.1-7.8,9.8-7.1c17.6,2.8,34.8,7.7,51.1,14.7c4.3,1.8,6.4,6.8,4.5,11.2C442,162.5,438.8,164.5,435.5,164.5L435.5,164.5z"
			/>
		<path class="st0" d="M386.4,571.7c-4.1,0-7.7-3-8.4-7.2c-0.7-4.7,2.4-9,7.1-9.8c16.2-2.6,32.1-7.1,47.2-13.5
			c4.4-1.8,9.4,0.2,11.2,4.5c1.8,4.3-0.2,9.4-4.5,11.2c-16.3,6.9-33.5,11.8-51.1,14.7C387.2,571.6,386.8,571.7,386.4,571.7
			L386.4,571.7z"/>
		<path class="st0" d="M482.8,530c-2.6,0-5.1-1.1-6.8-3.3c-2.9-3.7-2.2-9.1,1.5-12c13.9-10.7,26.4-23.3,37.2-37.2
			c2.9-3.7,8.2-4.4,12-1.5c3.7,2.9,4.4,8.2,1.5,12c-11.6,15.1-25.2,28.6-40.2,40.2C486.4,529.4,484.6,530,482.8,530z"/>
		<path class="st0" d="M549,444c-1.1,0-2.2-0.2-3.3-0.7c-4.3-1.8-6.4-6.8-4.5-11.2c6.4-15.1,10.9-30.9,13.5-47.2
			c0.7-4.7,5.1-7.8,9.8-7.1c4.7,0.7,7.8,5.1,7.1,9.8c-2.8,17.6-7.7,34.8-14.6,51.1C555.5,442.1,552.4,444,549,444L549,444z"/>
		<path class="st0" d="M156,444c-3.3,0-6.5-2-7.9-5.2c-6.9-16.3-11.8-33.5-14.6-51.1c-0.7-4.7,2.4-9,7.1-9.8c4.6-0.8,9,2.4,9.8,7.1
			c2.6,16.2,7.1,32.1,13.5,47.2c1.8,4.3-0.2,9.4-4.5,11.2C158.2,443.8,157.1,444,156,444z"/>
		<path class="st0" d="M222.3,530c-1.8,0-3.7-0.6-5.2-1.8C202,516.6,188.5,503,176.8,488c-2.9-3.7-2.2-9.1,1.5-12
			c3.7-2.9,9.1-2.2,12,1.5c10.7,13.9,23.2,26.4,37.2,37.2c3.7,2.9,4.4,8.2,1.5,12C227.4,528.9,224.8,530,222.3,530z"/>
		<path class="st0" d="M318.6,571.7c-0.4,0-0.9,0-1.4-0.1c-17.6-2.8-34.8-7.7-51.1-14.7c-4.3-1.8-6.4-6.8-4.5-11.2
			c1.8-4.4,6.8-6.4,11.2-4.5c15.1,6.4,30.9,10.9,47.2,13.5c4.7,0.7,7.8,5.1,7.1,9.8C326.4,568.7,322.8,571.7,318.6,571.7z"/>
		<path class="st0" d="M269.5,164.5c-3.3,0-6.5-2-7.9-5.2c-1.8-4.3,0.2-9.4,4.5-11.2c16.3-6.9,33.5-11.8,51.1-14.7
			c4.7-0.8,9,2.4,9.8,7.1c0.7,4.7-2.4,9-7.1,9.8c-16.2,2.6-32.1,7.1-47.2,13.5C271.7,164.3,270.6,164.5,269.5,164.5L269.5,164.5z"/>
		<path class="st0" d="M183.5,230.8c-1.8,0-3.7-0.6-5.2-1.8c-3.7-2.9-4.4-8.2-1.5-12c11.6-15.1,25.2-28.6,40.2-40.2
			c3.7-2.9,9.1-2.2,12,1.5c2.9,3.7,2.2,9.1-1.5,12c-13.9,10.7-26.4,23.3-37.2,37.2C188.6,229.7,186.1,230.8,183.5,230.8z"/>
		<path class="st0" d="M141.9,327.2c-0.5,0-0.9,0-1.4-0.1c-4.7-0.7-7.8-5.1-7.1-9.8c2.8-17.6,7.7-34.8,14.6-51.1
			c1.8-4.3,6.8-6.4,11.2-4.5c4.3,1.8,6.4,6.8,4.5,11.2c-6.4,15.1-10.9,30.9-13.5,47.2C149.6,324.2,146,327.2,141.9,327.2z"/>
		<path class="st0" d="M284.2,386.6c-1.3,0-2.6-0.3-3.8-0.9l-68.3-34.1c-2.9-1.5-4.7-4.4-4.7-7.6v-68.3c0-3,1.5-5.7,4-7.3
			c2.5-1.6,5.7-1.7,8.3-0.4l68.3,34.1c2.9,1.5,4.7,4.4,4.7,7.6v68.3c0,3-1.5,5.7-4,7.3C287.3,386.2,285.8,386.6,284.2,386.6
			L284.2,386.6z M224.5,338.7l51.2,25.6v-49.2l-51.2-25.6V338.7z"/>
		<path class="st0" d="M284.2,386.6c-1.6,0-3.1-0.4-4.5-1.3c-2.5-1.6-4-4.3-4-7.3v-68.3c0-3.2,1.8-6.2,4.7-7.6l68.3-34.1
			c2.6-1.3,5.8-1.2,8.3,0.4c2.5,1.6,4,4.3,4,7.3V344c0,3.2-1.8,6.2-4.7,7.6L288,385.7C286.8,386.3,285.5,386.6,284.2,386.6z
			 M292.8,315.1v49.2l51.2-25.6v-49.2L292.8,315.1z"/>
		<path class="st0" d="M284.2,318.4c-1.3,0-2.6-0.3-3.8-0.9l-68.3-34.1c-2.9-1.5-4.7-4.4-4.7-7.6s1.8-6.2,4.7-7.6l68.3-34.1
			c2.4-1.2,5.2-1.2,7.6,0l68.3,34.1c2.9,1.5,4.7,4.4,4.7,7.6s-1.8,6.2-4.7,7.6l-68.3,34.1C286.8,318.1,285.5,318.4,284.2,318.4z
			 M235,275.7l49.2,24.6l49.2-24.6l-49.2-24.6L235,275.7z"/>
		<path class="st0" d="M420.8,386.6c-1.3,0-2.6-0.3-3.8-0.9l-68.3-34.1c-2.9-1.5-4.7-4.4-4.7-7.6v-68.3c0-3,1.5-5.7,4-7.3
			c2.5-1.6,5.7-1.7,8.3-0.4l68.3,34.1c2.9,1.5,4.7,4.4,4.7,7.6v68.3c0,3-1.5,5.7-4,7.3C423.9,386.2,422.3,386.6,420.8,386.6
			L420.8,386.6z M361,338.7l51.2,25.6v-49.2L361,289.5V338.7z"/>
		<path class="st0" d="M420.8,386.6c-1.6,0-3.1-0.4-4.5-1.3c-2.5-1.6-4-4.3-4-7.3v-68.3c0-3.2,1.8-6.2,4.7-7.6l68.3-34.1
			c2.6-1.3,5.8-1.2,8.3,0.4c2.5,1.6,4,4.3,4,7.3V344c0,3.2-1.8,6.2-4.7,7.6l-68.3,34.1C423.4,386.3,422.1,386.6,420.8,386.6z
			 M429.3,315.1v49.2l51.2-25.6v-49.2L429.3,315.1z"/>
		<path class="st0" d="M420.8,318.4c-1.3,0-2.6-0.3-3.8-0.9l-68.3-34.1c-2.9-1.5-4.7-4.4-4.7-7.6s1.8-6.2,4.7-7.6l68.3-34.1
			c2.4-1.2,5.2-1.2,7.6,0l68.3,34.1c2.9,1.5,4.7,4.4,4.7,7.6s-1.8,6.2-4.7,7.6l-68.3,34.1C423.4,318.1,422.1,318.4,420.8,318.4z
			 M371.6,275.7l49.2,24.6l49.2-24.6l-49.2-24.6L371.6,275.7z"/>
		<path class="st0" d="M352.5,489c-1.3,0-2.6-0.3-3.8-0.9L280.4,454c-2.9-1.5-4.7-4.4-4.7-7.6v-68.3c0-3,1.5-5.7,4-7.3
			c2.5-1.6,5.7-1.7,8.3-0.4l68.3,34.1c2.9,1.5,4.7,4.4,4.7,7.6v68.3c0,3-1.5,5.7-4,7.3C355.6,488.6,354.1,489,352.5,489L352.5,489z
			 M292.8,441.1l51.2,25.6v-49.2l-51.2-25.6V441.1z"/>
		<path class="st0" d="M352.5,489c-1.6,0-3.1-0.4-4.5-1.3c-2.5-1.6-4-4.3-4-7.3v-68.3c0-3.2,1.8-6.2,4.7-7.6l68.3-34.1
			c2.6-1.3,5.8-1.2,8.3,0.4c2.5,1.6,4,4.3,4,7.3v68.3c0,3.2-1.8,6.2-4.7,7.6l-68.3,34.1C355.1,488.7,353.8,489,352.5,489L352.5,489z
			 M361,417.5v49.2l51.2-25.6v-49.2L361,417.5z"/>
		<path class="st0" d="M352.5,420.8c-1.3,0-2.6-0.3-3.8-0.9l-68.3-34.1c-2.9-1.5-4.7-4.4-4.7-7.6c0-3.2,1.8-6.2,4.7-7.6l68.3-34.1
			c2.4-1.2,5.2-1.2,7.6,0l68.3,34.1c2.9,1.5,4.7,4.4,4.7,7.6c0,3.2-1.8,6.2-4.7,7.6l-68.3,34.1C355.1,420.5,353.8,420.8,352.5,420.8
			z M303.3,378.1l49.2,24.6l49.2-24.6l-49.2-24.6L303.3,378.1z"/>
	</g>
</g>
<g id="Layer_2">
	<g>
		<path class="st1" d="M352.5,684c-88.5,0-171.8-34.5-234.4-97.1C55.5,524.3,21,441,21,352.5s34.5-171.8,97.1-234.4
			C180.7,55.5,264,21,352.5,21s171.8,34.5,234.4,97.1C649.5,180.7,684,264,684,352.5s-34.5,171.8-97.1,234.4
			C524.3,649.5,441,684,352.5,684z M352.5,37c-84.3,0-163.5,32.8-223.1,92.4C69.8,189,37,268.2,37,352.5S69.8,516,129.4,575.6
			C189,635.2,268.2,668,352.5,668s163.5-32.8,223.1-92.4C635.2,516,668,436.8,668,352.5S635.2,189,575.6,129.4
			C516,69.8,436.8,37,352.5,37z"/>
	</g>
</g>
</svg>
